<svg viewBox="0 0 181.00269 160.16933" xmlns="http://www.w3.org/2000/svg">
  <g transform="rotate(-30.813233,71.798878,143.57958)">
    <path d="m 156.77267,62.3358 -99.440086,4.479219 c 0,0 -4.337625,0.04847 -7.228622,3.3674 -2.890997,3.318929 -2.235963,7.599768 -2.235963,7.599768 L 30.57582,78.196613 c 0,0 -2.793182,-0.01043 -4.444441,1.919387 -1.65126,1.929817 -1.617952,5.22266 -1.617952,5.22266 l 0.122278,18.78054 c 0,0 -0.04344,3.28021 1.798552,4.86089 1.841989,1.58068 5.338831,1.48467 5.338831,1.48467 l 16.423803,0.13197 c 0,0 -0.416227,4.29182 2.400178,7.20744 2.816405,2.91562 7.768636,2.89345 7.768636,2.89345 l 31.045308,1.22913 -28.496473,22.54683 c 0,0 -6.286018,5.25246 -1.819838,10.34829 4.46618,5.09583 9.745156,0.95909 9.745156,0.95909 l 43.053932,-32.88901 -7.24671,54.18794 c 0,0 -0.31223,7.12742 6.27485,7.90415 6.58708,0.77673 7.8796,-6.39096 7.8796,-6.39096 l 8.10968,-55.72378 30.14804,1.14245 z"/>
    <path d="m 175.59746,54.123898 h 24.31297 c 4.432,0 8,3.601502 8,8.075117 v 64.102445 c 0,4.47361 -3.568,8.07512 -8,8.07512 h -24.31297 c -4.432,0 -8,-3.60151 -8,-8.07512 V 62.199015 c 0,-4.473615 3.568,-8.075117 8,-8.075117 z" />
  </g>
</svg>
